<svg xmlns="http://www.w3.org/2000/svg" width="118" height="28" viewBox="0 0 118 28"><g fill="#FF5100" fill-rule="nonzero"><path d="M16.666 8.346h-2.92c-.737 0-1.091.325-1.091 1.032v8.892L6.712 9.128c-.413-.634-.678-.752-1.504-.782H2.333c-.767 0-1.12.325-1.12 1.032v16.885c0 .707.353 1.032 1.12 1.032h2.92c.766 0 1.12-.325 1.12-1.032v-8.848l5.972 9.098c.443.664.679.782 1.504.782h2.832c.766 0 1.12-.325 1.12-1.032V9.378c-.03-.707-.383-1.032-1.135-1.032z"/><circle cx="3.793" cy="3.215" r="3.215"/><path d="M37.034 14.693c.85-1.088 1.94-1.666 3.402-1.666 2.653 0 4.251 1.836 4.251 4.251v5.748c.034.272-.136.408-.408.408h-.918c-.272 0-.442-.136-.408-.408v-5.714c0-1.36-1.123-2.517-2.551-2.517-1.395 0-2.517 1.123-2.517 2.381v5.85c.034.272-.136.408-.408.408h-.919c-.272 0-.408-.136-.408-.408v-5.748c0-1.36-1.122-2.483-2.517-2.483-1.36 0-2.517 1.089-2.517 2.381v5.884c.034.272-.136.408-.442.408h-.884c-.272 0-.442-.136-.442-.408V13.64c-.034-.272.136-.442.442-.442h.85c.238 0 .34.102.34.306v.714c.715-.748 1.599-1.156 2.653-1.156 1.429-.034 2.551.544 3.401 1.632zM46.082 18.332c0-2.89 2.346-5.305 5.306-5.305 1.428 0 2.652.578 3.673 1.734v-1.156c0-.272.136-.374.408-.374h.816c.272 0 .408.136.408.442v9.421c0 .272-.136.408-.408.408h-.816c-.272 0-.408-.136-.408-.374v-1.156c-.987 1.122-2.211 1.7-3.64 1.7-2.993-.068-5.34-2.448-5.34-5.34zm8.843 0c0-2.006-1.565-3.537-3.572-3.537-1.938 0-3.503 1.565-3.503 3.537 0 2.007 1.565 3.538 3.538 3.538a3.535 3.535 0 0 0 3.537-3.538zM60.163 21.938v5.272c.034.272-.136.442-.409.442h-.918c-.272 0-.442-.136-.442-.442V13.605c0-.272.136-.442.442-.442h.85c.273-.034.443.136.443.374v1.122c.986-1.122 2.21-1.666 3.605-1.666 2.925 0 5.306 2.414 5.306 5.305 0 2.891-2.347 5.306-5.306 5.306-1.429 0-2.62-.544-3.571-1.666zm3.537-7.143c-1.939 0-3.503 1.565-3.503 3.537 0 2.007 1.564 3.538 3.537 3.538 2.007 0 3.537-1.565 3.537-3.538 0-1.972-1.564-3.537-3.571-3.537zM72.033 21.938v5.272c.034.272-.136.442-.408.442h-.919c-.272 0-.442-.136-.442-.442V13.605c0-.272.136-.442.442-.442h.85c.273-.034.443.136.443.374v1.122c.986-1.122 2.21-1.666 3.605-1.666 2.925 0 5.306 2.414 5.306 5.305 0 2.891-2.347 5.306-5.306 5.306-1.428 0-2.585-.544-3.571-1.666zm3.537-7.143c-1.939 0-3.503 1.565-3.503 3.537 0 2.007 1.564 3.538 3.537 3.538 2.007 0 3.537-1.565 3.537-3.538 0-1.972-1.564-3.537-3.57-3.537zM91.42 18.979H83.8c.17 1.7 1.735 2.993 3.605 2.993 1.02 0 1.905-.238 2.687-.817.17-.102.34-.17.374-.17.136 0 .238.068.34.239l.34.578c.069.102.103.17.103.238 0 .136-.102.272-.34.442-1.089.748-2.313 1.156-3.606 1.156-3.129 0-5.374-2.312-5.374-5.306 0-2.959 2.313-5.305 5.204-5.305 2.857 0 4.728 2.108 4.728 5.17 0 .34 0 .782-.442.782zm-7.619-1.36h6.292c-.17-1.871-1.326-2.994-2.993-2.994a3.219 3.219 0 0 0-3.299 2.993zM92.814 18.332c0-2.89 2.347-5.305 5.306-5.305 1.429 0 2.585.544 3.537 1.666v-5.17c-.034-.272.136-.442.408-.442h.919c.272 0 .442.136.442.442V23.06c0 .272-.136.408-.442.408h-.85c-.273.034-.443-.136-.443-.374v-1.156c-1.02 1.122-2.21 1.7-3.605 1.7-2.925-.034-5.272-2.414-5.272-5.306zm8.81 0c0-2.006-1.565-3.537-3.572-3.537-1.939 0-3.503 1.565-3.503 3.537 0 2.007 1.564 3.538 3.537 3.538a3.513 3.513 0 0 0 3.537-3.538zM105.433 11.19a.93.93 0 0 1 .952-.952.95.95 0 0 1 .952.952.93.93 0 0 1-.952.952c-.544.034-.952-.374-.952-.952zm.068 11.836v-9.421c0-.272.136-.442.408-.442h.918c.272 0 .442.136.408.442v9.421c.034.272-.136.408-.408.408h-.918c-.272 0-.408-.136-.408-.408zM110.875 13.503v.68c.748-.782 1.632-1.156 2.686-1.156 2.62 0 4.218 1.802 4.218 4.217v5.782c.034.272-.136.408-.408.408h-.918c-.273 0-.409-.136-.409-.408v-5.748c0-1.36-1.122-2.483-2.517-2.483-1.36 0-2.516 1.089-2.516 2.381v5.884c.034.272-.136.408-.443.408h-.918c-.272 0-.442-.136-.442-.408v-9.455c-.034-.272.136-.408.442-.408h.85c.238 0 .375.102.375.306z"/></g></svg>